<svg enable-background="new 0 0 267.1 78.4" viewBox="0 0 267.1 78.4" xmlns="http://www.w3.org/2000/svg"><g fill="#334155"><path d="m106.1 56.7h-5.5v-3.2c-1.8 2.3-4.8 3.7-8 3.7-6.4 0-11.2-4-11.2-11.5v-16h5.5v15c0 4.9 2.7 7.5 6.8 7.5s6.8-2.5 6.8-7.5v-15.1h5.6z"/><path d="m121.4 57.1c-6.5 0-11.1-3.9-11.3-8.8h5.7c.2 2.2 2.3 4.1 5.4 4.1 3.2 0 4.9-1.4 4.9-3.2 0-5.3-15.7-2.3-15.7-12.2 0-4.3 4.1-7.8 10.4-7.8 6.2 0 10.1 3.2 10.4 8.7h-5.6c-.2-2.4-2-4-5-4s-4.6 1.3-4.6 3c0 5.4 15.2 2.4 15.6 12.2.1 4.6-3.8 8-10.2 8z"/><path d="m147.5 57.1c-7.7 0-13.5-5.5-13.5-14s5.5-13.9 13.5-13.9c7.7 0 13.2 5.3 13.2 13.3 0 .9 0 1.8-.2 2.7h-20.7c.4 4.5 3.6 7.2 7.7 7.2 3.4 0 5.3-1.7 6.4-3.8h6.1c-1.6 4.7-5.8 8.5-12.5 8.5zm-7.7-16.3h14.9c-.1-4.2-3.3-6.8-7.5-6.8-3.7-.1-6.7 2.5-7.4 6.8z"/><path d="m169.8 56.7h-5.6v-27.1h5.6v4.4c1.6-2.7 4.1-3.9 7.8-4.4l1.4 4.3c-4.1 0-9.2 4.3-9.2 10z"/><path d="m180.6 29.6h5.7l5.6 21.7 5.7-21.7h5.8l5.5 21.6 5.6-21.6h5.5l-8.1 27.1h-5.8l-5.4-20-5.5 20h-5.8z"/><path d="m233.9 57.1c-7.7 0-13.5-5.5-13.5-14s5.5-13.9 13.5-13.9c7.7 0 13.2 5.3 13.2 13.3 0 .9 0 1.8-.2 2.7h-20.7c.4 4.5 3.6 7.2 7.7 7.2 3.4 0 5.3-1.7 6.4-3.8h6.1c-1.5 4.7-5.8 8.5-12.5 8.5zm-7.6-16.3h14.9c-.1-4.2-3.3-6.8-7.5-6.8-3.7-.1-6.8 2.5-7.4 6.8z"/><path d="m250.7 22.8h5.6v33.9h-5.6z"/><path d="m260.7 19.8h5.6v36.9h-5.6z"/></g><path d="m1 45.9c0 11.6 6.3 21.7 15.7 27.2v-27.2-15.9h-15.7z" fill="#1e40af"/><path d="m16.7 20.2v52.8c4.6 2.7 9.9 4.3 15.7 4.3v-57.1z" fill="#1d4ed8"/><path d="m32.4 10.7v66.6h.1c5.6 0 11-1.5 15.6-4.2v-62.4z" fill="#2563eb"/><path d="m63.9 45.9-.2-43.7h-15.7v70.9c9.4-5.4 15.9-15.6 15.9-27.2z" fill="#3b82f6"/></svg>